<mxfile host="Electron" agent="Mozilla/5.0 (Windows NT 10.0; Win64; x64) AppleWebKit/537.36 (KHTML, like Gecko) draw.io/28.1.2 Chrome/138.0.7204.243 Electron/37.4.0 Safari/537.36" version="28.1.2">
  <diagram name="Page-1" id="2f0_UIn1QX5p4JlgjNAr">
    <mxGraphModel dx="1426" dy="875" grid="1" gridSize="10" guides="1" tooltips="1" connect="1" arrows="1" fold="1" page="1" pageScale="1" pageWidth="1100" pageHeight="850" math="0" shadow="0">
      <root>
        <mxCell id="0" />
        <mxCell id="1" parent="0" />
        <mxCell id="9vFJiuCCPZ5ZFo6hukGw-6" value="" style="edgeStyle=orthogonalEdgeStyle;rounded=0;orthogonalLoop=1;jettySize=auto;html=1;" parent="1" source="_1Ch5Hdbkco9YCcDuAIu-21" target="9vFJiuCCPZ5ZFo6hukGw-5" edge="1">
          <mxGeometry relative="1" as="geometry">
            <mxPoint x="360" y="679" as="sourcePoint" />
          </mxGeometry>
        </mxCell>
        <mxCell id="9vFJiuCCPZ5ZFo6hukGw-8" value="" style="edgeStyle=orthogonalEdgeStyle;rounded=0;orthogonalLoop=1;jettySize=auto;html=1;" parent="1" source="9vFJiuCCPZ5ZFo6hukGw-5" target="9vFJiuCCPZ5ZFo6hukGw-7" edge="1">
          <mxGeometry relative="1" as="geometry" />
        </mxCell>
        <mxCell id="jjYnuseNqR3K3UAZzciC-93" value="" style="edgeStyle=orthogonalEdgeStyle;rounded=0;orthogonalLoop=1;jettySize=auto;html=1;endArrow=none;endFill=0;" parent="1" source="9vFJiuCCPZ5ZFo6hukGw-5" target="jjYnuseNqR3K3UAZzciC-92" edge="1">
          <mxGeometry relative="1" as="geometry" />
        </mxCell>
        <mxCell id="9vFJiuCCPZ5ZFo6hukGw-5" value="AI compilation" style="whiteSpace=wrap;html=1;rounded=1;fontStyle=1" parent="1" vertex="1">
          <mxGeometry x="460" y="649" width="120" height="60" as="geometry" />
        </mxCell>
        <mxCell id="_1Ch5Hdbkco9YCcDuAIu-29" value="" style="edgeStyle=orthogonalEdgeStyle;rounded=0;orthogonalLoop=1;jettySize=auto;html=1;" parent="1" source="9vFJiuCCPZ5ZFo6hukGw-7" target="_1Ch5Hdbkco9YCcDuAIu-28" edge="1">
          <mxGeometry relative="1" as="geometry" />
        </mxCell>
        <mxCell id="jjYnuseNqR3K3UAZzciC-74" style="edgeStyle=orthogonalEdgeStyle;rounded=0;orthogonalLoop=1;jettySize=auto;html=1;" parent="1" source="9vFJiuCCPZ5ZFo6hukGw-7" target="jjYnuseNqR3K3UAZzciC-73" edge="1">
          <mxGeometry relative="1" as="geometry">
            <Array as="points">
              <mxPoint x="740" y="769" />
            </Array>
          </mxGeometry>
        </mxCell>
        <mxCell id="9vFJiuCCPZ5ZFo6hukGw-7" value="AI Article" style="whiteSpace=wrap;html=1;rounded=1;" parent="1" vertex="1">
          <mxGeometry x="680" y="649" width="120" height="60" as="geometry" />
        </mxCell>
        <mxCell id="fIE31c6hWo1CscnfOw33-9" value="Identify current trending topics and affairs" style="rounded=1;whiteSpace=wrap;html=1;" parent="1" vertex="1">
          <mxGeometry x="220" y="150" width="120" height="60" as="geometry" />
        </mxCell>
        <mxCell id="_1Ch5Hdbkco9YCcDuAIu-3" value="Identify&lt;div&gt;Identify current trending topics&lt;/div&gt;" style="rounded=1;whiteSpace=wrap;html=1;" parent="1" vertex="1">
          <mxGeometry x="40" y="130" width="150" height="100" as="geometry" />
        </mxCell>
        <mxCell id="_1Ch5Hdbkco9YCcDuAIu-9" value="Compile&lt;div&gt;Compiles multiple articles into a single one covering a single topic&lt;/div&gt;" style="rounded=1;whiteSpace=wrap;html=1;" parent="1" vertex="1">
          <mxGeometry x="40" y="629" width="160" height="100" as="geometry" />
        </mxCell>
        <mxCell id="_1Ch5Hdbkco9YCcDuAIu-10" value="Ingest&lt;br&gt;&lt;div&gt;Import articles from multiple sources&lt;/div&gt;" style="rounded=1;whiteSpace=wrap;html=1;" parent="1" vertex="1">
          <mxGeometry x="40" y="370" width="150" height="100" as="geometry" />
        </mxCell>
        <mxCell id="_1Ch5Hdbkco9YCcDuAIu-23" value="" style="edgeStyle=orthogonalEdgeStyle;rounded=0;orthogonalLoop=1;jettySize=auto;html=1;" parent="1" source="_1Ch5Hdbkco9YCcDuAIu-13" target="_1Ch5Hdbkco9YCcDuAIu-22" edge="1">
          <mxGeometry relative="1" as="geometry" />
        </mxCell>
        <mxCell id="_1Ch5Hdbkco9YCcDuAIu-13" value="3rd party article source" style="rounded=1;whiteSpace=wrap;html=1;flipH=1;" parent="1" vertex="1">
          <mxGeometry x="220" y="385" width="120" height="60" as="geometry" />
        </mxCell>
        <mxCell id="_1Ch5Hdbkco9YCcDuAIu-21" value="Multiple 3rd party articles on the same trending topic" style="rounded=1;whiteSpace=wrap;html=1;" parent="1" vertex="1">
          <mxGeometry x="240" y="649" width="120" height="60" as="geometry" />
        </mxCell>
        <mxCell id="jjYnuseNqR3K3UAZzciC-83" value="" style="edgeStyle=orthogonalEdgeStyle;rounded=0;orthogonalLoop=1;jettySize=auto;html=1;" parent="1" source="_1Ch5Hdbkco9YCcDuAIu-22" target="jjYnuseNqR3K3UAZzciC-82" edge="1">
          <mxGeometry relative="1" as="geometry" />
        </mxCell>
        <mxCell id="_1Ch5Hdbkco9YCcDuAIu-22" value="import top articles" style="rounded=1;whiteSpace=wrap;html=1;flipH=1;" parent="1" vertex="1">
          <mxGeometry x="390" y="385" width="120" height="60" as="geometry" />
        </mxCell>
        <mxCell id="_1Ch5Hdbkco9YCcDuAIu-28" value="AI Audio" style="whiteSpace=wrap;html=1;rounded=1;dashed=1;dashPattern=1 2;" parent="1" vertex="1">
          <mxGeometry x="880" y="649" width="120" height="60" as="geometry" />
        </mxCell>
        <mxCell id="s1_NxwoBrpegGPB-QbzP-15" value="AI newsroom" style="text;html=1;align=center;verticalAlign=middle;whiteSpace=wrap;rounded=0;fontFamily=Helvetica;fontSize=22;fontColor=default;labelBackgroundColor=default;fontStyle=1" parent="1" vertex="1">
          <mxGeometry x="380" y="30" width="340" height="30" as="geometry" />
        </mxCell>
        <mxCell id="ciIE_CoD7rSya75Oq5se-2" style="edgeStyle=orthogonalEdgeStyle;rounded=0;orthogonalLoop=1;jettySize=auto;html=1;" parent="1" source="s1_NxwoBrpegGPB-QbzP-16" target="jjYnuseNqR3K3UAZzciC-59" edge="1">
          <mxGeometry relative="1" as="geometry" />
        </mxCell>
        <mxCell id="s1_NxwoBrpegGPB-QbzP-16" value="&lt;div&gt;Tag content with semantical tags&lt;/div&gt;" style="rounded=1;whiteSpace=wrap;html=1;" parent="1" vertex="1">
          <mxGeometry x="564" y="515" width="140" height="60" as="geometry" />
        </mxCell>
        <mxCell id="s2s7f9IMEK1w8N7TYZo1-18" style="edgeStyle=orthogonalEdgeStyle;shape=connector;rounded=0;orthogonalLoop=1;jettySize=auto;html=1;strokeColor=default;align=center;verticalAlign=middle;fontFamily=Helvetica;fontSize=11;fontColor=default;labelBackgroundColor=default;endArrow=none;endFill=0;" parent="1" source="jjYnuseNqR3K3UAZzciC-6" target="jjYnuseNqR3K3UAZzciC-22" edge="1">
          <mxGeometry relative="1" as="geometry" />
        </mxCell>
        <mxCell id="s2s7f9IMEK1w8N7TYZo1-20" value="0..N" style="edgeLabel;html=1;align=center;verticalAlign=middle;resizable=0;points=[];fontFamily=Helvetica;fontSize=11;fontColor=default;labelBackgroundColor=default;" parent="s2s7f9IMEK1w8N7TYZo1-18" vertex="1" connectable="0">
          <mxGeometry x="-0.8275" y="-1" relative="1" as="geometry">
            <mxPoint as="offset" />
          </mxGeometry>
        </mxCell>
        <mxCell id="s2s7f9IMEK1w8N7TYZo1-23" value="1" style="edgeLabel;html=1;align=center;verticalAlign=middle;resizable=0;points=[];fontFamily=Helvetica;fontSize=11;fontColor=default;labelBackgroundColor=default;" parent="s2s7f9IMEK1w8N7TYZo1-18" vertex="1" connectable="0">
          <mxGeometry x="0.9059" relative="1" as="geometry">
            <mxPoint as="offset" />
          </mxGeometry>
        </mxCell>
        <mxCell id="VjeAdHcTNo9tYZ-XImX4-1" style="edgeStyle=orthogonalEdgeStyle;rounded=0;orthogonalLoop=1;jettySize=auto;html=1;endArrow=none;endFill=0;" parent="1" source="jjYnuseNqR3K3UAZzciC-6" target="jjYnuseNqR3K3UAZzciC-14" edge="1">
          <mxGeometry relative="1" as="geometry">
            <Array as="points">
              <mxPoint x="740" y="1310" />
            </Array>
          </mxGeometry>
        </mxCell>
        <mxCell id="VjeAdHcTNo9tYZ-XImX4-2" value="0..N" style="edgeLabel;html=1;align=center;verticalAlign=middle;resizable=0;points=[];" parent="VjeAdHcTNo9tYZ-XImX4-1" vertex="1" connectable="0">
          <mxGeometry x="-0.9697" y="-3" relative="1" as="geometry">
            <mxPoint x="2" y="1" as="offset" />
          </mxGeometry>
        </mxCell>
        <mxCell id="VjeAdHcTNo9tYZ-XImX4-3" value="1" style="edgeLabel;html=1;align=center;verticalAlign=middle;resizable=0;points=[];" parent="VjeAdHcTNo9tYZ-XImX4-1" vertex="1" connectable="0">
          <mxGeometry x="0.9782" y="-2" relative="1" as="geometry">
            <mxPoint x="-3" y="2" as="offset" />
          </mxGeometry>
        </mxCell>
        <mxCell id="jjYnuseNqR3K3UAZzciC-6" value="Topic" style="swimlane;fontStyle=0;childLayout=stackLayout;horizontal=1;startSize=26;fillColor=none;horizontalStack=0;resizeParent=1;resizeParentMax=0;resizeLast=0;collapsible=1;marginBottom=0;whiteSpace=wrap;html=1;" parent="1" vertex="1">
          <mxGeometry x="265" y="1210" width="140" height="130" as="geometry" />
        </mxCell>
        <mxCell id="jjYnuseNqR3K3UAZzciC-7" value="+ name: string" style="text;strokeColor=none;fillColor=none;align=left;verticalAlign=top;spacingLeft=4;spacingRight=4;overflow=hidden;rotatable=0;points=[[0,0.5],[1,0.5]];portConstraint=eastwest;whiteSpace=wrap;html=1;" parent="jjYnuseNqR3K3UAZzciC-6" vertex="1">
          <mxGeometry y="26" width="140" height="26" as="geometry" />
        </mxCell>
        <mxCell id="jjYnuseNqR3K3UAZzciC-8" value="+ summary: text" style="text;strokeColor=none;fillColor=none;align=left;verticalAlign=top;spacingLeft=4;spacingRight=4;overflow=hidden;rotatable=0;points=[[0,0.5],[1,0.5]];portConstraint=eastwest;whiteSpace=wrap;html=1;" parent="jjYnuseNqR3K3UAZzciC-6" vertex="1">
          <mxGeometry y="52" width="140" height="26" as="geometry" />
        </mxCell>
        <mxCell id="jjYnuseNqR3K3UAZzciC-68" value="+ state: enum" style="text;strokeColor=none;fillColor=none;align=left;verticalAlign=top;spacingLeft=4;spacingRight=4;overflow=hidden;rotatable=0;points=[[0,0.5],[1,0.5]];portConstraint=eastwest;whiteSpace=wrap;html=1;" parent="jjYnuseNqR3K3UAZzciC-6" vertex="1">
          <mxGeometry y="78" width="140" height="26" as="geometry" />
        </mxCell>
        <mxCell id="S8-ENH_D7NWhTH_uTfeD-10" value="+ summaryHash: string" style="text;strokeColor=none;fillColor=none;align=left;verticalAlign=top;spacingLeft=4;spacingRight=4;overflow=hidden;rotatable=0;points=[[0,0.5],[1,0.5]];portConstraint=eastwest;whiteSpace=wrap;html=1;" parent="jjYnuseNqR3K3UAZzciC-6" vertex="1">
          <mxGeometry y="104" width="140" height="26" as="geometry" />
        </mxCell>
        <mxCell id="s2s7f9IMEK1w8N7TYZo1-25" style="edgeStyle=orthogonalEdgeStyle;shape=connector;rounded=0;orthogonalLoop=1;jettySize=auto;html=1;strokeColor=default;align=center;verticalAlign=middle;fontFamily=Helvetica;fontSize=11;fontColor=default;labelBackgroundColor=default;endArrow=none;endFill=0;" parent="1" source="jjYnuseNqR3K3UAZzciC-10" target="jjYnuseNqR3K3UAZzciC-14" edge="1">
          <mxGeometry relative="1" as="geometry">
            <Array as="points">
              <mxPoint x="800" y="1103" />
            </Array>
          </mxGeometry>
        </mxCell>
        <mxCell id="s2s7f9IMEK1w8N7TYZo1-26" value="0..N" style="edgeLabel;html=1;align=center;verticalAlign=middle;resizable=0;points=[];fontFamily=Helvetica;fontSize=11;fontColor=default;labelBackgroundColor=default;" parent="s2s7f9IMEK1w8N7TYZo1-25" vertex="1" connectable="0">
          <mxGeometry x="-0.8319" relative="1" as="geometry">
            <mxPoint as="offset" />
          </mxGeometry>
        </mxCell>
        <mxCell id="s2s7f9IMEK1w8N7TYZo1-27" value="1" style="edgeLabel;html=1;align=center;verticalAlign=middle;resizable=0;points=[];fontFamily=Helvetica;fontSize=11;fontColor=default;labelBackgroundColor=default;" parent="s2s7f9IMEK1w8N7TYZo1-25" vertex="1" connectable="0">
          <mxGeometry x="0.8407" y="3" relative="1" as="geometry">
            <mxPoint y="2" as="offset" />
          </mxGeometry>
        </mxCell>
        <mxCell id="jjYnuseNqR3K3UAZzciC-10" value="Article Source" style="swimlane;fontStyle=0;childLayout=stackLayout;horizontal=1;startSize=26;fillColor=none;horizontalStack=0;resizeParent=1;resizeParentMax=0;resizeLast=0;collapsible=1;marginBottom=0;whiteSpace=wrap;html=1;" parent="1" vertex="1">
          <mxGeometry x="730" y="1370" width="140" height="78" as="geometry" />
        </mxCell>
        <mxCell id="jjYnuseNqR3K3UAZzciC-11" value="+ url: string" style="text;strokeColor=none;fillColor=none;align=left;verticalAlign=top;spacingLeft=4;spacingRight=4;overflow=hidden;rotatable=0;points=[[0,0.5],[1,0.5]];portConstraint=eastwest;whiteSpace=wrap;html=1;" parent="jjYnuseNqR3K3UAZzciC-10" vertex="1">
          <mxGeometry y="26" width="140" height="26" as="geometry" />
        </mxCell>
        <mxCell id="jjYnuseNqR3K3UAZzciC-12" value="+ importType: enum" style="text;strokeColor=none;fillColor=none;align=left;verticalAlign=top;spacingLeft=4;spacingRight=4;overflow=hidden;rotatable=0;points=[[0,0.5],[1,0.5]];portConstraint=eastwest;whiteSpace=wrap;html=1;" parent="jjYnuseNqR3K3UAZzciC-10" vertex="1">
          <mxGeometry y="52" width="140" height="26" as="geometry" />
        </mxCell>
        <mxCell id="jjYnuseNqR3K3UAZzciC-14" value="Language" style="swimlane;fontStyle=0;childLayout=stackLayout;horizontal=1;startSize=26;fillColor=none;horizontalStack=0;resizeParent=1;resizeParentMax=0;resizeLast=0;collapsible=1;marginBottom=0;whiteSpace=wrap;html=1;" parent="1" vertex="1">
          <mxGeometry x="715" y="1070" width="140" height="78" as="geometry" />
        </mxCell>
        <mxCell id="jjYnuseNqR3K3UAZzciC-15" value="+ name: string" style="text;strokeColor=none;fillColor=none;align=left;verticalAlign=top;spacingLeft=4;spacingRight=4;overflow=hidden;rotatable=0;points=[[0,0.5],[1,0.5]];portConstraint=eastwest;whiteSpace=wrap;html=1;" parent="jjYnuseNqR3K3UAZzciC-14" vertex="1">
          <mxGeometry y="26" width="140" height="26" as="geometry" />
        </mxCell>
        <mxCell id="3_nOLkv7CPVGNrmWfh7A-4" value="+ code: string" style="text;strokeColor=none;fillColor=none;align=left;verticalAlign=top;spacingLeft=4;spacingRight=4;overflow=hidden;rotatable=0;points=[[0,0.5],[1,0.5]];portConstraint=eastwest;whiteSpace=wrap;html=1;" parent="jjYnuseNqR3K3UAZzciC-14" vertex="1">
          <mxGeometry y="52" width="140" height="26" as="geometry" />
        </mxCell>
        <mxCell id="jjYnuseNqR3K3UAZzciC-35" style="edgeStyle=orthogonalEdgeStyle;rounded=0;orthogonalLoop=1;jettySize=auto;html=1;endArrow=none;endFill=0;" parent="1" source="jjYnuseNqR3K3UAZzciC-18" target="jjYnuseNqR3K3UAZzciC-14" edge="1">
          <mxGeometry relative="1" as="geometry">
            <Array as="points">
              <mxPoint x="460" y="1340" />
              <mxPoint x="760" y="1340" />
            </Array>
          </mxGeometry>
        </mxCell>
        <mxCell id="s2s7f9IMEK1w8N7TYZo1-21" value="1" style="edgeLabel;html=1;align=center;verticalAlign=middle;resizable=0;points=[];fontFamily=Helvetica;fontSize=11;fontColor=default;labelBackgroundColor=default;" parent="jjYnuseNqR3K3UAZzciC-35" vertex="1" connectable="0">
          <mxGeometry x="0.9648" y="2" relative="1" as="geometry">
            <mxPoint as="offset" />
          </mxGeometry>
        </mxCell>
        <mxCell id="s2s7f9IMEK1w8N7TYZo1-22" value="0..N" style="edgeLabel;html=1;align=center;verticalAlign=middle;resizable=0;points=[];fontFamily=Helvetica;fontSize=11;fontColor=default;labelBackgroundColor=default;" parent="jjYnuseNqR3K3UAZzciC-35" vertex="1" connectable="0">
          <mxGeometry x="-0.9512" relative="1" as="geometry">
            <mxPoint x="6" as="offset" />
          </mxGeometry>
        </mxCell>
        <mxCell id="jjYnuseNqR3K3UAZzciC-45" style="edgeStyle=orthogonalEdgeStyle;rounded=0;orthogonalLoop=1;jettySize=auto;html=1;endArrow=none;endFill=0;" parent="1" source="jjYnuseNqR3K3UAZzciC-18" target="jjYnuseNqR3K3UAZzciC-6" edge="1">
          <mxGeometry relative="1" as="geometry">
            <Array as="points">
              <mxPoint x="400" y="1372" />
              <mxPoint x="335" y="1372" />
            </Array>
          </mxGeometry>
        </mxCell>
        <mxCell id="jjYnuseNqR3K3UAZzciC-53" value="1" style="edgeLabel;html=1;align=center;verticalAlign=middle;resizable=0;points=[];" parent="jjYnuseNqR3K3UAZzciC-45" vertex="1" connectable="0">
          <mxGeometry x="0.7978" y="-1" relative="1" as="geometry">
            <mxPoint x="-3" y="-4" as="offset" />
          </mxGeometry>
        </mxCell>
        <mxCell id="s2s7f9IMEK1w8N7TYZo1-24" value="0..N" style="edgeLabel;html=1;align=center;verticalAlign=middle;resizable=0;points=[];fontFamily=Helvetica;fontSize=11;fontColor=default;labelBackgroundColor=default;" parent="jjYnuseNqR3K3UAZzciC-45" vertex="1" connectable="0">
          <mxGeometry x="-0.7931" relative="1" as="geometry">
            <mxPoint as="offset" />
          </mxGeometry>
        </mxCell>
        <mxCell id="s2s7f9IMEK1w8N7TYZo1-31" style="edgeStyle=orthogonalEdgeStyle;shape=connector;rounded=0;orthogonalLoop=1;jettySize=auto;html=1;strokeColor=default;align=center;verticalAlign=middle;fontFamily=Helvetica;fontSize=11;fontColor=default;labelBackgroundColor=default;endArrow=none;endFill=0;" parent="1" source="jjYnuseNqR3K3UAZzciC-18" target="jjYnuseNqR3K3UAZzciC-10" edge="1">
          <mxGeometry relative="1" as="geometry">
            <Array as="points">
              <mxPoint x="610" y="1490" />
              <mxPoint x="610" y="1409" />
            </Array>
          </mxGeometry>
        </mxCell>
        <mxCell id="s2s7f9IMEK1w8N7TYZo1-32" value="1" style="edgeLabel;html=1;align=center;verticalAlign=middle;resizable=0;points=[];fontFamily=Helvetica;fontSize=11;fontColor=default;labelBackgroundColor=default;" parent="s2s7f9IMEK1w8N7TYZo1-31" vertex="1" connectable="0">
          <mxGeometry x="0.875" y="-2" relative="1" as="geometry">
            <mxPoint as="offset" />
          </mxGeometry>
        </mxCell>
        <mxCell id="s2s7f9IMEK1w8N7TYZo1-33" value="0..N" style="edgeLabel;html=1;align=center;verticalAlign=middle;resizable=0;points=[];fontFamily=Helvetica;fontSize=11;fontColor=default;labelBackgroundColor=default;" parent="s2s7f9IMEK1w8N7TYZo1-31" vertex="1" connectable="0">
          <mxGeometry x="-0.8472" y="-2" relative="1" as="geometry">
            <mxPoint as="offset" />
          </mxGeometry>
        </mxCell>
        <mxCell id="jjYnuseNqR3K3UAZzciC-18" value="Article" style="swimlane;fontStyle=0;childLayout=stackLayout;horizontal=1;startSize=26;fillColor=none;horizontalStack=0;resizeParent=1;resizeParentMax=0;resizeLast=0;collapsible=1;marginBottom=0;whiteSpace=wrap;html=1;" parent="1" vertex="1">
          <mxGeometry x="350" y="1430" width="170" height="208" as="geometry" />
        </mxCell>
        <mxCell id="jjYnuseNqR3K3UAZzciC-19" value="+ title: string" style="text;strokeColor=none;fillColor=none;align=left;verticalAlign=top;spacingLeft=4;spacingRight=4;overflow=hidden;rotatable=0;points=[[0,0.5],[1,0.5]];portConstraint=eastwest;whiteSpace=wrap;html=1;" parent="jjYnuseNqR3K3UAZzciC-18" vertex="1">
          <mxGeometry y="26" width="170" height="26" as="geometry" />
        </mxCell>
        <mxCell id="jjYnuseNqR3K3UAZzciC-20" value="+ annotation: text" style="text;strokeColor=none;fillColor=none;align=left;verticalAlign=top;spacingLeft=4;spacingRight=4;overflow=hidden;rotatable=0;points=[[0,0.5],[1,0.5]];portConstraint=eastwest;whiteSpace=wrap;html=1;" parent="jjYnuseNqR3K3UAZzciC-18" vertex="1">
          <mxGeometry y="52" width="170" height="26" as="geometry" />
        </mxCell>
        <mxCell id="jjYnuseNqR3K3UAZzciC-21" value="+ summary: text" style="text;strokeColor=none;fillColor=none;align=left;verticalAlign=top;spacingLeft=4;spacingRight=4;overflow=hidden;rotatable=0;points=[[0,0.5],[1,0.5]];portConstraint=eastwest;whiteSpace=wrap;html=1;" parent="jjYnuseNqR3K3UAZzciC-18" vertex="1">
          <mxGeometry y="78" width="170" height="26" as="geometry" />
        </mxCell>
        <mxCell id="jjYnuseNqR3K3UAZzciC-36" value="+ body: text" style="text;strokeColor=none;fillColor=none;align=left;verticalAlign=top;spacingLeft=4;spacingRight=4;overflow=hidden;rotatable=0;points=[[0,0.5],[1,0.5]];portConstraint=eastwest;whiteSpace=wrap;html=1;" parent="jjYnuseNqR3K3UAZzciC-18" vertex="1">
          <mxGeometry y="104" width="170" height="26" as="geometry" />
        </mxCell>
        <mxCell id="jjYnuseNqR3K3UAZzciC-54" value="+ state: enum" style="text;strokeColor=none;fillColor=none;align=left;verticalAlign=top;spacingLeft=4;spacingRight=4;overflow=hidden;rotatable=0;points=[[0,0.5],[1,0.5]];portConstraint=eastwest;whiteSpace=wrap;html=1;" parent="jjYnuseNqR3K3UAZzciC-18" vertex="1">
          <mxGeometry y="130" width="170" height="26" as="geometry" />
        </mxCell>
        <mxCell id="s2s7f9IMEK1w8N7TYZo1-13" value="+ publishDate: time" style="text;strokeColor=none;fillColor=none;align=left;verticalAlign=top;spacingLeft=4;spacingRight=4;overflow=hidden;rotatable=0;points=[[0,0.5],[1,0.5]];portConstraint=eastwest;whiteSpace=wrap;html=1;" parent="jjYnuseNqR3K3UAZzciC-18" vertex="1">
          <mxGeometry y="156" width="170" height="26" as="geometry" />
        </mxCell>
        <mxCell id="S8-ENH_D7NWhTH_uTfeD-9" value="+ summaryHash: string" style="text;strokeColor=none;fillColor=none;align=left;verticalAlign=top;spacingLeft=4;spacingRight=4;overflow=hidden;rotatable=0;points=[[0,0.5],[1,0.5]];portConstraint=eastwest;whiteSpace=wrap;html=1;" parent="jjYnuseNqR3K3UAZzciC-18" vertex="1">
          <mxGeometry y="182" width="170" height="26" as="geometry" />
        </mxCell>
        <mxCell id="s2s7f9IMEK1w8N7TYZo1-6" style="edgeStyle=orthogonalEdgeStyle;rounded=0;orthogonalLoop=1;jettySize=auto;html=1;endArrow=none;endFill=0;" parent="1" source="jjYnuseNqR3K3UAZzciC-22" target="s2s7f9IMEK1w8N7TYZo1-1" edge="1">
          <mxGeometry relative="1" as="geometry">
            <Array as="points">
              <mxPoint x="130" y="1000" />
            </Array>
          </mxGeometry>
        </mxCell>
        <mxCell id="s2s7f9IMEK1w8N7TYZo1-7" value="0..N" style="edgeLabel;html=1;align=center;verticalAlign=middle;resizable=0;points=[];fontFamily=Helvetica;fontSize=11;fontColor=default;labelBackgroundColor=default;" parent="s2s7f9IMEK1w8N7TYZo1-6" vertex="1" connectable="0">
          <mxGeometry x="0.8226" relative="1" as="geometry">
            <mxPoint as="offset" />
          </mxGeometry>
        </mxCell>
        <mxCell id="s2s7f9IMEK1w8N7TYZo1-8" value="1..N" style="edgeLabel;html=1;align=center;verticalAlign=middle;resizable=0;points=[];fontFamily=Helvetica;fontSize=11;fontColor=default;labelBackgroundColor=default;" parent="s2s7f9IMEK1w8N7TYZo1-6" vertex="1" connectable="0">
          <mxGeometry x="-0.8716" y="2" relative="1" as="geometry">
            <mxPoint y="9" as="offset" />
          </mxGeometry>
        </mxCell>
        <mxCell id="jjYnuseNqR3K3UAZzciC-22" value="Realm" style="swimlane;fontStyle=0;childLayout=stackLayout;horizontal=1;startSize=26;fillColor=none;horizontalStack=0;resizeParent=1;resizeParentMax=0;resizeLast=0;collapsible=1;marginBottom=0;whiteSpace=wrap;html=1;" parent="1" vertex="1">
          <mxGeometry x="60" y="1038" width="140" height="104" as="geometry" />
        </mxCell>
        <mxCell id="jjYnuseNqR3K3UAZzciC-25" value="+ name: string" style="text;strokeColor=none;fillColor=none;align=left;verticalAlign=top;spacingLeft=4;spacingRight=4;overflow=hidden;rotatable=0;points=[[0,0.5],[1,0.5]];portConstraint=eastwest;whiteSpace=wrap;html=1;" parent="jjYnuseNqR3K3UAZzciC-22" vertex="1">
          <mxGeometry y="26" width="140" height="26" as="geometry" />
        </mxCell>
        <mxCell id="jjYnuseNqR3K3UAZzciC-49" value="+ summary: text" style="text;strokeColor=none;fillColor=none;align=left;verticalAlign=top;spacingLeft=4;spacingRight=4;overflow=hidden;rotatable=0;points=[[0,0.5],[1,0.5]];portConstraint=eastwest;whiteSpace=wrap;html=1;" parent="jjYnuseNqR3K3UAZzciC-22" vertex="1">
          <mxGeometry y="52" width="140" height="26" as="geometry" />
        </mxCell>
        <mxCell id="s2s7f9IMEK1w8N7TYZo1-15" value="+ approved: bool" style="text;strokeColor=none;fillColor=none;align=left;verticalAlign=top;spacingLeft=4;spacingRight=4;overflow=hidden;rotatable=0;points=[[0,0.5],[1,0.5]];portConstraint=eastwest;whiteSpace=wrap;html=1;" parent="jjYnuseNqR3K3UAZzciC-22" vertex="1">
          <mxGeometry y="78" width="140" height="26" as="geometry" />
        </mxCell>
        <mxCell id="jjYnuseNqR3K3UAZzciC-34" style="edgeStyle=orthogonalEdgeStyle;rounded=0;orthogonalLoop=1;jettySize=auto;html=1;endArrow=none;endFill=0;" parent="1" source="jjYnuseNqR3K3UAZzciC-30" target="jjYnuseNqR3K3UAZzciC-6" edge="1">
          <mxGeometry relative="1" as="geometry" />
        </mxCell>
        <mxCell id="s2s7f9IMEK1w8N7TYZo1-28" value="1" style="edgeLabel;html=1;align=center;verticalAlign=middle;resizable=0;points=[];fontFamily=Helvetica;fontSize=11;fontColor=default;labelBackgroundColor=default;" parent="jjYnuseNqR3K3UAZzciC-34" vertex="1" connectable="0">
          <mxGeometry x="0.7867" y="1" relative="1" as="geometry">
            <mxPoint as="offset" />
          </mxGeometry>
        </mxCell>
        <mxCell id="s2s7f9IMEK1w8N7TYZo1-29" value="0..N" style="edgeLabel;html=1;align=center;verticalAlign=middle;resizable=0;points=[];fontFamily=Helvetica;fontSize=11;fontColor=default;labelBackgroundColor=default;" parent="jjYnuseNqR3K3UAZzciC-34" vertex="1" connectable="0">
          <mxGeometry x="-0.7733" y="-1" relative="1" as="geometry">
            <mxPoint y="-1" as="offset" />
          </mxGeometry>
        </mxCell>
        <mxCell id="jjYnuseNqR3K3UAZzciC-30" value="Image" style="swimlane;fontStyle=0;childLayout=stackLayout;horizontal=1;startSize=26;fillColor=none;horizontalStack=0;resizeParent=1;resizeParentMax=0;resizeLast=0;collapsible=1;marginBottom=0;whiteSpace=wrap;html=1;" parent="1" vertex="1">
          <mxGeometry x="490" y="1120" width="140" height="104" as="geometry" />
        </mxCell>
        <mxCell id="jjYnuseNqR3K3UAZzciC-31" value="+ originalUrl: string" style="text;strokeColor=none;fillColor=none;align=left;verticalAlign=top;spacingLeft=4;spacingRight=4;overflow=hidden;rotatable=0;points=[[0,0.5],[1,0.5]];portConstraint=eastwest;whiteSpace=wrap;html=1;" parent="jjYnuseNqR3K3UAZzciC-30" vertex="1">
          <mxGeometry y="26" width="140" height="26" as="geometry" />
        </mxCell>
        <mxCell id="jjYnuseNqR3K3UAZzciC-32" value="+ path: string" style="text;strokeColor=none;fillColor=none;align=left;verticalAlign=top;spacingLeft=4;spacingRight=4;overflow=hidden;rotatable=0;points=[[0,0.5],[1,0.5]];portConstraint=eastwest;whiteSpace=wrap;html=1;" parent="jjYnuseNqR3K3UAZzciC-30" vertex="1">
          <mxGeometry y="52" width="140" height="26" as="geometry" />
        </mxCell>
        <mxCell id="jjYnuseNqR3K3UAZzciC-33" value="+ description: string" style="text;strokeColor=none;fillColor=none;align=left;verticalAlign=top;spacingLeft=4;spacingRight=4;overflow=hidden;rotatable=0;points=[[0,0.5],[1,0.5]];portConstraint=eastwest;whiteSpace=wrap;html=1;" parent="jjYnuseNqR3K3UAZzciC-30" vertex="1">
          <mxGeometry y="78" width="140" height="26" as="geometry" />
        </mxCell>
        <mxCell id="jjYnuseNqR3K3UAZzciC-55" value="Annotate&lt;br&gt;&lt;div&gt;Create title, summary, detect article tags and&amp;nbsp; topic&lt;/div&gt;" style="rounded=1;whiteSpace=wrap;html=1;" parent="1" vertex="1">
          <mxGeometry x="40" y="500" width="150" height="100" as="geometry" />
        </mxCell>
        <mxCell id="jjYnuseNqR3K3UAZzciC-56" value="" style="edgeStyle=orthogonalEdgeStyle;rounded=0;orthogonalLoop=1;jettySize=auto;html=1;" parent="1" source="jjYnuseNqR3K3UAZzciC-57" target="jjYnuseNqR3K3UAZzciC-80" edge="1">
          <mxGeometry relative="1" as="geometry">
            <mxPoint x="420" y="545" as="targetPoint" />
          </mxGeometry>
        </mxCell>
        <mxCell id="jjYnuseNqR3K3UAZzciC-57" value="imported article" style="rounded=1;whiteSpace=wrap;html=1;flipH=1;" parent="1" vertex="1">
          <mxGeometry x="220" y="515" width="120" height="60" as="geometry" />
        </mxCell>
        <mxCell id="S8-ENH_D7NWhTH_uTfeD-12" value="" style="edgeStyle=orthogonalEdgeStyle;rounded=0;orthogonalLoop=1;jettySize=auto;html=1;" parent="1" source="jjYnuseNqR3K3UAZzciC-59" target="S8-ENH_D7NWhTH_uTfeD-11" edge="1">
          <mxGeometry relative="1" as="geometry" />
        </mxCell>
        <mxCell id="jjYnuseNqR3K3UAZzciC-59" value="save embeddings" style="rounded=1;whiteSpace=wrap;html=1;flipH=1;" parent="1" vertex="1">
          <mxGeometry x="760" y="515" width="120" height="60" as="geometry" />
        </mxCell>
        <mxCell id="jjYnuseNqR3K3UAZzciC-61" value="AI Log" style="swimlane;fontStyle=0;childLayout=stackLayout;horizontal=1;startSize=26;fillColor=none;horizontalStack=0;resizeParent=1;resizeParentMax=0;resizeLast=0;collapsible=1;marginBottom=0;whiteSpace=wrap;html=1;" parent="1" vertex="1">
          <mxGeometry x="935" y="960" width="140" height="208" as="geometry" />
        </mxCell>
        <mxCell id="jjYnuseNqR3K3UAZzciC-62" value="+ systemPrompt: text" style="text;strokeColor=none;fillColor=none;align=left;verticalAlign=top;spacingLeft=4;spacingRight=4;overflow=hidden;rotatable=0;points=[[0,0.5],[1,0.5]];portConstraint=eastwest;whiteSpace=wrap;html=1;" parent="jjYnuseNqR3K3UAZzciC-61" vertex="1">
          <mxGeometry y="26" width="140" height="26" as="geometry" />
        </mxCell>
        <mxCell id="jjYnuseNqR3K3UAZzciC-63" value="+ userPrompt: text" style="text;strokeColor=none;fillColor=none;align=left;verticalAlign=top;spacingLeft=4;spacingRight=4;overflow=hidden;rotatable=0;points=[[0,0.5],[1,0.5]];portConstraint=eastwest;whiteSpace=wrap;html=1;" parent="jjYnuseNqR3K3UAZzciC-61" vertex="1">
          <mxGeometry y="52" width="140" height="26" as="geometry" />
        </mxCell>
        <mxCell id="jjYnuseNqR3K3UAZzciC-64" value="+ response: text" style="text;strokeColor=none;fillColor=none;align=left;verticalAlign=top;spacingLeft=4;spacingRight=4;overflow=hidden;rotatable=0;points=[[0,0.5],[1,0.5]];portConstraint=eastwest;whiteSpace=wrap;html=1;" parent="jjYnuseNqR3K3UAZzciC-61" vertex="1">
          <mxGeometry y="78" width="140" height="26" as="geometry" />
        </mxCell>
        <mxCell id="jjYnuseNqR3K3UAZzciC-65" value="+ date: time" style="text;strokeColor=none;fillColor=none;align=left;verticalAlign=top;spacingLeft=4;spacingRight=4;overflow=hidden;rotatable=0;points=[[0,0.5],[1,0.5]];portConstraint=eastwest;whiteSpace=wrap;html=1;" parent="jjYnuseNqR3K3UAZzciC-61" vertex="1">
          <mxGeometry y="104" width="140" height="26" as="geometry" />
        </mxCell>
        <mxCell id="jjYnuseNqR3K3UAZzciC-66" value="+ operation: enum" style="text;strokeColor=none;fillColor=none;align=left;verticalAlign=top;spacingLeft=4;spacingRight=4;overflow=hidden;rotatable=0;points=[[0,0.5],[1,0.5]];portConstraint=eastwest;whiteSpace=wrap;html=1;" parent="jjYnuseNqR3K3UAZzciC-61" vertex="1">
          <mxGeometry y="130" width="140" height="26" as="geometry" />
        </mxCell>
        <mxCell id="s2s7f9IMEK1w8N7TYZo1-17" value="+ entityType: enum" style="text;strokeColor=none;fillColor=none;align=left;verticalAlign=top;spacingLeft=4;spacingRight=4;overflow=hidden;rotatable=0;points=[[0,0.5],[1,0.5]];portConstraint=eastwest;whiteSpace=wrap;html=1;" parent="jjYnuseNqR3K3UAZzciC-61" vertex="1">
          <mxGeometry y="156" width="140" height="26" as="geometry" />
        </mxCell>
        <mxCell id="s2s7f9IMEK1w8N7TYZo1-16" value="+ entityId: int" style="text;strokeColor=none;fillColor=none;align=left;verticalAlign=top;spacingLeft=4;spacingRight=4;overflow=hidden;rotatable=0;points=[[0,0.5],[1,0.5]];portConstraint=eastwest;whiteSpace=wrap;html=1;" parent="jjYnuseNqR3K3UAZzciC-61" vertex="1">
          <mxGeometry y="182" width="140" height="26" as="geometry" />
        </mxCell>
        <mxCell id="jjYnuseNqR3K3UAZzciC-76" style="edgeStyle=orthogonalEdgeStyle;rounded=0;orthogonalLoop=1;jettySize=auto;html=1;endArrow=none;endFill=0;" parent="1" source="jjYnuseNqR3K3UAZzciC-69" target="jjYnuseNqR3K3UAZzciC-18" edge="1">
          <mxGeometry relative="1" as="geometry">
            <Array as="points">
              <mxPoint x="605" y="1540" />
              <mxPoint x="605" y="1540" />
            </Array>
          </mxGeometry>
        </mxCell>
        <mxCell id="jjYnuseNqR3K3UAZzciC-77" value="0..N" style="edgeLabel;html=1;align=center;verticalAlign=middle;resizable=0;points=[];" parent="jjYnuseNqR3K3UAZzciC-76" vertex="1" connectable="0">
          <mxGeometry x="0.6154" y="1" relative="1" as="geometry">
            <mxPoint x="-5" y="-2" as="offset" />
          </mxGeometry>
        </mxCell>
        <mxCell id="jjYnuseNqR3K3UAZzciC-78" value="0..N" style="edgeLabel;html=1;align=center;verticalAlign=middle;resizable=0;points=[];" parent="jjYnuseNqR3K3UAZzciC-76" vertex="1" connectable="0">
          <mxGeometry x="-0.8462" y="1" relative="1" as="geometry">
            <mxPoint x="-9" y="-2" as="offset" />
          </mxGeometry>
        </mxCell>
        <mxCell id="jjYnuseNqR3K3UAZzciC-69" value="Tag" style="swimlane;fontStyle=0;childLayout=stackLayout;horizontal=1;startSize=26;fillColor=none;horizontalStack=0;resizeParent=1;resizeParentMax=0;resizeLast=0;collapsible=1;marginBottom=0;whiteSpace=wrap;html=1;" parent="1" vertex="1">
          <mxGeometry x="665" y="1520" width="140" height="52" as="geometry" />
        </mxCell>
        <mxCell id="jjYnuseNqR3K3UAZzciC-70" value="+ name: string" style="text;strokeColor=none;fillColor=none;align=left;verticalAlign=top;spacingLeft=4;spacingRight=4;overflow=hidden;rotatable=0;points=[[0,0.5],[1,0.5]];portConstraint=eastwest;whiteSpace=wrap;html=1;" parent="jjYnuseNqR3K3UAZzciC-69" vertex="1">
          <mxGeometry y="26" width="140" height="26" as="geometry" />
        </mxCell>
        <mxCell id="jjYnuseNqR3K3UAZzciC-73" value="AI Video" style="whiteSpace=wrap;html=1;rounded=1;dashed=1;dashPattern=1 2;" parent="1" vertex="1">
          <mxGeometry x="880" y="739" width="120" height="60" as="geometry" />
        </mxCell>
        <mxCell id="ciIE_CoD7rSya75Oq5se-1" style="edgeStyle=orthogonalEdgeStyle;rounded=0;orthogonalLoop=1;jettySize=auto;html=1;" parent="1" source="jjYnuseNqR3K3UAZzciC-80" target="s1_NxwoBrpegGPB-QbzP-16" edge="1">
          <mxGeometry relative="1" as="geometry" />
        </mxCell>
        <mxCell id="jjYnuseNqR3K3UAZzciC-80" value="create summary" style="rounded=1;whiteSpace=wrap;html=1;flipH=1;" parent="1" vertex="1">
          <mxGeometry x="390" y="515" width="120" height="60" as="geometry" />
        </mxCell>
        <mxCell id="jjYnuseNqR3K3UAZzciC-85" value="" style="edgeStyle=orthogonalEdgeStyle;rounded=0;orthogonalLoop=1;jettySize=auto;html=1;" parent="1" source="jjYnuseNqR3K3UAZzciC-82" target="jjYnuseNqR3K3UAZzciC-84" edge="1">
          <mxGeometry relative="1" as="geometry" />
        </mxCell>
        <mxCell id="jjYnuseNqR3K3UAZzciC-82" value="extract images" style="rounded=1;whiteSpace=wrap;html=1;flipH=1;" parent="1" vertex="1">
          <mxGeometry x="590" y="385" width="120" height="60" as="geometry" />
        </mxCell>
        <mxCell id="jjYnuseNqR3K3UAZzciC-84" value="clean text" style="rounded=1;whiteSpace=wrap;html=1;flipH=1;" parent="1" vertex="1">
          <mxGeometry x="790" y="385" width="120" height="60" as="geometry" />
        </mxCell>
        <mxCell id="jjYnuseNqR3K3UAZzciC-86" value="DB" style="shape=cylinder3;whiteSpace=wrap;html=1;boundedLbl=1;backgroundOutline=1;size=15;" parent="1" vertex="1">
          <mxGeometry x="40" y="1800" width="60" height="80" as="geometry" />
        </mxCell>
        <mxCell id="wx5DxgrQYqGXfZ_SjuOP-18" style="edgeStyle=orthogonalEdgeStyle;shape=connector;rounded=0;orthogonalLoop=1;jettySize=auto;html=1;strokeColor=default;align=center;verticalAlign=middle;fontFamily=Helvetica;fontSize=11;fontColor=default;labelBackgroundColor=default;endArrow=classic;endFill=1;" parent="1" source="jjYnuseNqR3K3UAZzciC-89" target="jjYnuseNqR3K3UAZzciC-96" edge="1">
          <mxGeometry relative="1" as="geometry">
            <Array as="points">
              <mxPoint x="600" y="1750" />
            </Array>
            <mxPoint x="750" y="2155" as="targetPoint" />
          </mxGeometry>
        </mxCell>
        <mxCell id="jjYnuseNqR3K3UAZzciC-89" value="React admin" style="rounded=1;whiteSpace=wrap;html=1;" parent="1" vertex="1">
          <mxGeometry x="805" y="1724" width="120" height="60" as="geometry" />
        </mxCell>
        <mxCell id="jjYnuseNqR3K3UAZzciC-92" value="Flavored (different styles)&lt;div&gt;Highly localized or niche-topic focus&lt;/div&gt;" style="whiteSpace=wrap;html=1;rounded=1;fontStyle=0" parent="1" vertex="1">
          <mxGeometry x="370" y="729" width="210" height="100" as="geometry" />
        </mxCell>
        <mxCell id="jjYnuseNqR3K3UAZzciC-96" value="API" style="rounded=1;whiteSpace=wrap;html=1;" parent="1" vertex="1">
          <mxGeometry x="540" y="1810" width="120" height="60" as="geometry" />
        </mxCell>
        <mxCell id="3_nOLkv7CPVGNrmWfh7A-1" value="Data Layer" style="rounded=1;whiteSpace=wrap;html=1;" parent="1" vertex="1">
          <mxGeometry x="120" y="1810" width="120" height="60" as="geometry" />
        </mxCell>
        <mxCell id="3_nOLkv7CPVGNrmWfh7A-2" value="Cache" style="rounded=1;whiteSpace=wrap;html=1;dashed=1;dashPattern=1 2;" parent="1" vertex="1">
          <mxGeometry x="260" y="1810" width="120" height="60" as="geometry" />
        </mxCell>
        <mxCell id="3_nOLkv7CPVGNrmWfh7A-3" value="Service Layer" style="rounded=1;whiteSpace=wrap;html=1;" parent="1" vertex="1">
          <mxGeometry x="400" y="1810" width="120" height="60" as="geometry" />
        </mxCell>
        <mxCell id="s2s7f9IMEK1w8N7TYZo1-9" style="edgeStyle=orthogonalEdgeStyle;shape=connector;rounded=0;orthogonalLoop=1;jettySize=auto;html=1;strokeColor=default;align=center;verticalAlign=middle;fontFamily=Helvetica;fontSize=11;fontColor=default;labelBackgroundColor=default;endArrow=none;endFill=0;" parent="1" source="s2s7f9IMEK1w8N7TYZo1-1" target="jjYnuseNqR3K3UAZzciC-14" edge="1">
          <mxGeometry relative="1" as="geometry" />
        </mxCell>
        <mxCell id="s2s7f9IMEK1w8N7TYZo1-10" value="0..N" style="edgeLabel;html=1;align=center;verticalAlign=middle;resizable=0;points=[];fontFamily=Helvetica;fontSize=11;fontColor=default;labelBackgroundColor=default;" parent="s2s7f9IMEK1w8N7TYZo1-9" vertex="1" connectable="0">
          <mxGeometry x="-0.8115" y="1" relative="1" as="geometry">
            <mxPoint as="offset" />
          </mxGeometry>
        </mxCell>
        <mxCell id="s2s7f9IMEK1w8N7TYZo1-11" value="1" style="edgeLabel;html=1;align=center;verticalAlign=middle;resizable=0;points=[];fontFamily=Helvetica;fontSize=11;fontColor=default;labelBackgroundColor=default;" parent="s2s7f9IMEK1w8N7TYZo1-9" vertex="1" connectable="0">
          <mxGeometry x="0.822" y="1" relative="1" as="geometry">
            <mxPoint as="offset" />
          </mxGeometry>
        </mxCell>
        <mxCell id="s2s7f9IMEK1w8N7TYZo1-12" value="default language" style="edgeLabel;html=1;align=center;verticalAlign=middle;resizable=0;points=[];fontFamily=Helvetica;fontSize=11;fontColor=default;labelBackgroundColor=default;" parent="s2s7f9IMEK1w8N7TYZo1-9" vertex="1" connectable="0">
          <mxGeometry x="0.0681" y="2" relative="1" as="geometry">
            <mxPoint x="6" y="2" as="offset" />
          </mxGeometry>
        </mxCell>
        <mxCell id="s2s7f9IMEK1w8N7TYZo1-1" value="Website" style="swimlane;fontStyle=0;childLayout=stackLayout;horizontal=1;startSize=26;fillColor=none;horizontalStack=0;resizeParent=1;resizeParentMax=0;resizeLast=0;collapsible=1;marginBottom=0;whiteSpace=wrap;html=1;" parent="1" vertex="1">
          <mxGeometry x="525" y="960" width="140" height="78" as="geometry" />
        </mxCell>
        <mxCell id="s2s7f9IMEK1w8N7TYZo1-2" value="+ name: string" style="text;strokeColor=none;fillColor=none;align=left;verticalAlign=top;spacingLeft=4;spacingRight=4;overflow=hidden;rotatable=0;points=[[0,0.5],[1,0.5]];portConstraint=eastwest;whiteSpace=wrap;html=1;" parent="s2s7f9IMEK1w8N7TYZo1-1" vertex="1">
          <mxGeometry y="26" width="140" height="26" as="geometry" />
        </mxCell>
        <mxCell id="s2s7f9IMEK1w8N7TYZo1-3" value="+ url: string" style="text;strokeColor=none;fillColor=none;align=left;verticalAlign=top;spacingLeft=4;spacingRight=4;overflow=hidden;rotatable=0;points=[[0,0.5],[1,0.5]];portConstraint=eastwest;whiteSpace=wrap;html=1;" parent="s2s7f9IMEK1w8N7TYZo1-1" vertex="1">
          <mxGeometry y="52" width="140" height="26" as="geometry" />
        </mxCell>
        <mxCell id="s2s7f9IMEK1w8N7TYZo1-5" value="&lt;h1 style=&quot;margin-top: 0px;&quot;&gt;Creating a new website&lt;/h1&gt;&lt;p&gt;When creating a new website, user must enter website name, url and specify l&lt;span style=&quot;background-color: transparent; color: light-dark(rgb(0, 0, 0), rgb(255, 255, 255));&quot;&gt;ist of realms from which articles will be loaded.&lt;/span&gt;&lt;/p&gt;&lt;p&gt;&lt;span style=&quot;background-color: transparent; color: light-dark(rgb(0, 0, 0), rgb(255, 255, 255));&quot;&gt;Website can specify custom prompts to personalize writing style or accent on factuality.&lt;/span&gt;&lt;/p&gt;&lt;p&gt;Each website also has default language.&lt;/p&gt;" style="text;html=1;whiteSpace=wrap;overflow=hidden;rounded=0;" parent="1" vertex="1">
          <mxGeometry x="30" y="2070" width="450" height="220" as="geometry" />
        </mxCell>
        <mxCell id="ciIE_CoD7rSya75Oq5se-8" style="edgeStyle=orthogonalEdgeStyle;rounded=0;orthogonalLoop=1;jettySize=auto;html=1;elbow=horizontal;" parent="1" source="jjYnuseNqR3K3UAZzciC-69" target="jjYnuseNqR3K3UAZzciC-69" edge="1">
          <mxGeometry relative="1" as="geometry">
            <Array as="points">
              <mxPoint x="890" y="1550" />
            </Array>
          </mxGeometry>
        </mxCell>
        <mxCell id="ciIE_CoD7rSya75Oq5se-9" value="synonym of" style="edgeLabel;html=1;align=center;verticalAlign=middle;resizable=0;points=[];" parent="ciIE_CoD7rSya75Oq5se-8" vertex="1" connectable="0">
          <mxGeometry x="-0.0506" y="-1" relative="1" as="geometry">
            <mxPoint x="1" y="5" as="offset" />
          </mxGeometry>
        </mxCell>
        <mxCell id="wx5DxgrQYqGXfZ_SjuOP-15" style="edgeStyle=orthogonalEdgeStyle;shape=connector;rounded=0;orthogonalLoop=1;jettySize=auto;html=1;strokeColor=default;align=center;verticalAlign=middle;fontFamily=Helvetica;fontSize=11;fontColor=default;labelBackgroundColor=default;endArrow=none;endFill=0;" parent="1" source="S8-ENH_D7NWhTH_uTfeD-1" target="jjYnuseNqR3K3UAZzciC-18" edge="1">
          <mxGeometry relative="1" as="geometry">
            <Array as="points">
              <mxPoint x="290" y="1639" />
              <mxPoint x="290" y="1590" />
            </Array>
          </mxGeometry>
        </mxCell>
        <mxCell id="wx5DxgrQYqGXfZ_SjuOP-16" value="1" style="edgeLabel;html=1;align=center;verticalAlign=middle;resizable=0;points=[];fontFamily=Helvetica;fontSize=11;fontColor=default;labelBackgroundColor=default;" parent="wx5DxgrQYqGXfZ_SjuOP-15" vertex="1" connectable="0">
          <mxGeometry x="0.7751" relative="1" as="geometry">
            <mxPoint as="offset" />
          </mxGeometry>
        </mxCell>
        <mxCell id="wx5DxgrQYqGXfZ_SjuOP-17" value="1" style="edgeLabel;html=1;align=center;verticalAlign=middle;resizable=0;points=[];fontFamily=Helvetica;fontSize=11;fontColor=default;labelBackgroundColor=default;" parent="wx5DxgrQYqGXfZ_SjuOP-15" vertex="1" connectable="0">
          <mxGeometry x="-0.7988" relative="1" as="geometry">
            <mxPoint as="offset" />
          </mxGeometry>
        </mxCell>
        <mxCell id="S8-ENH_D7NWhTH_uTfeD-1" value="Article Embeddings" style="swimlane;fontStyle=0;childLayout=stackLayout;horizontal=1;startSize=26;fillColor=none;horizontalStack=0;resizeParent=1;resizeParentMax=0;resizeLast=0;collapsible=1;marginBottom=0;whiteSpace=wrap;html=1;" parent="1" vertex="1">
          <mxGeometry x="90" y="1600" width="140" height="78" as="geometry" />
        </mxCell>
        <mxCell id="S8-ENH_D7NWhTH_uTfeD-3" value="+ embedding: vector" style="text;strokeColor=none;fillColor=none;align=left;verticalAlign=top;spacingLeft=4;spacingRight=4;overflow=hidden;rotatable=0;points=[[0,0.5],[1,0.5]];portConstraint=eastwest;whiteSpace=wrap;html=1;" parent="S8-ENH_D7NWhTH_uTfeD-1" vertex="1">
          <mxGeometry y="26" width="140" height="26" as="geometry" />
        </mxCell>
        <mxCell id="S8-ENH_D7NWhTH_uTfeD-4" value="+ articleId: int" style="text;strokeColor=none;fillColor=none;align=left;verticalAlign=top;spacingLeft=4;spacingRight=4;overflow=hidden;rotatable=0;points=[[0,0.5],[1,0.5]];portConstraint=eastwest;whiteSpace=wrap;html=1;" parent="S8-ENH_D7NWhTH_uTfeD-1" vertex="1">
          <mxGeometry y="52" width="140" height="26" as="geometry" />
        </mxCell>
        <mxCell id="wx5DxgrQYqGXfZ_SjuOP-11" style="edgeStyle=orthogonalEdgeStyle;rounded=0;orthogonalLoop=1;jettySize=auto;html=1;endArrow=none;endFill=0;" parent="1" source="S8-ENH_D7NWhTH_uTfeD-5" target="jjYnuseNqR3K3UAZzciC-6" edge="1">
          <mxGeometry relative="1" as="geometry">
            <Array as="points">
              <mxPoint x="300" y="1389" />
            </Array>
          </mxGeometry>
        </mxCell>
        <mxCell id="wx5DxgrQYqGXfZ_SjuOP-12" value="1" style="edgeLabel;html=1;align=center;verticalAlign=middle;resizable=0;points=[];" parent="wx5DxgrQYqGXfZ_SjuOP-11" vertex="1" connectable="0">
          <mxGeometry x="0.7852" y="2" relative="1" as="geometry">
            <mxPoint as="offset" />
          </mxGeometry>
        </mxCell>
        <mxCell id="wx5DxgrQYqGXfZ_SjuOP-13" value="1" style="edgeLabel;html=1;align=center;verticalAlign=middle;resizable=0;points=[];" parent="wx5DxgrQYqGXfZ_SjuOP-11" vertex="1" connectable="0">
          <mxGeometry x="-0.8121" y="-1" relative="1" as="geometry">
            <mxPoint as="offset" />
          </mxGeometry>
        </mxCell>
        <mxCell id="S8-ENH_D7NWhTH_uTfeD-5" value="Topic Embeddings" style="swimlane;fontStyle=0;childLayout=stackLayout;horizontal=1;startSize=26;fillColor=none;horizontalStack=0;resizeParent=1;resizeParentMax=0;resizeLast=0;collapsible=1;marginBottom=0;whiteSpace=wrap;html=1;" parent="1" vertex="1">
          <mxGeometry x="60" y="1350" width="140" height="78" as="geometry" />
        </mxCell>
        <mxCell id="S8-ENH_D7NWhTH_uTfeD-7" value="+ embedding: vector" style="text;strokeColor=none;fillColor=none;align=left;verticalAlign=top;spacingLeft=4;spacingRight=4;overflow=hidden;rotatable=0;points=[[0,0.5],[1,0.5]];portConstraint=eastwest;whiteSpace=wrap;html=1;" parent="S8-ENH_D7NWhTH_uTfeD-5" vertex="1">
          <mxGeometry y="26" width="140" height="26" as="geometry" />
        </mxCell>
        <mxCell id="S8-ENH_D7NWhTH_uTfeD-8" value="+ topicId: int" style="text;strokeColor=none;fillColor=none;align=left;verticalAlign=top;spacingLeft=4;spacingRight=4;overflow=hidden;rotatable=0;points=[[0,0.5],[1,0.5]];portConstraint=eastwest;whiteSpace=wrap;html=1;" parent="S8-ENH_D7NWhTH_uTfeD-5" vertex="1">
          <mxGeometry y="52" width="140" height="26" as="geometry" />
        </mxCell>
        <mxCell id="S8-ENH_D7NWhTH_uTfeD-11" value="assign a topic&lt;div&gt;(create new topic)&lt;/div&gt;" style="rounded=1;whiteSpace=wrap;html=1;flipH=1;" parent="1" vertex="1">
          <mxGeometry x="930" y="515" width="120" height="60" as="geometry" />
        </mxCell>
        <mxCell id="IuwToMJsJBPLpMFAsy5o-3" value="Assign topic to realm(s)" style="rounded=1;whiteSpace=wrap;html=1;" parent="1" vertex="1">
          <mxGeometry x="220" y="270" width="120" height="60" as="geometry" />
        </mxCell>
        <mxCell id="IuwToMJsJBPLpMFAsy5o-4" value="Categorize&lt;div&gt;Assign topics to realms&lt;/div&gt;" style="rounded=1;whiteSpace=wrap;html=1;" parent="1" vertex="1">
          <mxGeometry x="40" y="250" width="150" height="100" as="geometry" />
        </mxCell>
        <mxCell id="wx5DxgrQYqGXfZ_SjuOP-3" style="edgeStyle=orthogonalEdgeStyle;rounded=0;orthogonalLoop=1;jettySize=auto;html=1;" parent="1" source="wx5DxgrQYqGXfZ_SjuOP-2" target="jjYnuseNqR3K3UAZzciC-96" edge="1">
          <mxGeometry relative="1" as="geometry">
            <Array as="points">
              <mxPoint x="720" y="1840" />
              <mxPoint x="720" y="1840" />
            </Array>
            <mxPoint x="680" y="2125" as="targetPoint" />
          </mxGeometry>
        </mxCell>
        <mxCell id="wx5DxgrQYqGXfZ_SjuOP-2" value="Website" style="rounded=1;whiteSpace=wrap;html=1;" parent="1" vertex="1">
          <mxGeometry x="805" y="1810" width="120" height="60" as="geometry" />
        </mxCell>
        <mxCell id="wx5DxgrQYqGXfZ_SjuOP-5" style="edgeStyle=orthogonalEdgeStyle;rounded=0;orthogonalLoop=1;jettySize=auto;html=1;" parent="1" source="wx5DxgrQYqGXfZ_SjuOP-4" target="jjYnuseNqR3K3UAZzciC-96" edge="1">
          <mxGeometry relative="1" as="geometry">
            <Array as="points">
              <mxPoint x="600" y="1930" />
            </Array>
            <mxPoint x="800" y="2125" as="targetPoint" />
          </mxGeometry>
        </mxCell>
        <mxCell id="wx5DxgrQYqGXfZ_SjuOP-4" value="Worker" style="rounded=1;whiteSpace=wrap;html=1;" parent="1" vertex="1">
          <mxGeometry x="805" y="1906" width="120" height="60" as="geometry" />
        </mxCell>
        <mxCell id="wx5DxgrQYqGXfZ_SjuOP-7" value="Embeddings Cache" style="swimlane;fontStyle=0;childLayout=stackLayout;horizontal=1;startSize=26;fillColor=none;horizontalStack=0;resizeParent=1;resizeParentMax=0;resizeLast=0;collapsible=1;marginBottom=0;whiteSpace=wrap;html=1;" parent="1" vertex="1">
          <mxGeometry x="935" y="1190" width="140" height="78" as="geometry" />
        </mxCell>
        <mxCell id="wx5DxgrQYqGXfZ_SjuOP-8" value="+ hash: string" style="text;strokeColor=none;fillColor=none;align=left;verticalAlign=top;spacingLeft=4;spacingRight=4;overflow=hidden;rotatable=0;points=[[0,0.5],[1,0.5]];portConstraint=eastwest;whiteSpace=wrap;html=1;" parent="wx5DxgrQYqGXfZ_SjuOP-7" vertex="1">
          <mxGeometry y="26" width="140" height="26" as="geometry" />
        </mxCell>
        <mxCell id="wx5DxgrQYqGXfZ_SjuOP-10" value="+ embedding: vector" style="text;strokeColor=none;fillColor=none;align=left;verticalAlign=top;spacingLeft=4;spacingRight=4;overflow=hidden;rotatable=0;points=[[0,0.5],[1,0.5]];portConstraint=eastwest;whiteSpace=wrap;html=1;" parent="wx5DxgrQYqGXfZ_SjuOP-7" vertex="1">
          <mxGeometry y="52" width="140" height="26" as="geometry" />
        </mxCell>
      </root>
    </mxGraphModel>
  </diagram>
</mxfile>
